<?xml version="1.0" encoding="utf-8"?>
<!-- Generator: Adobe Illustrator 21.1.0, SVG Export Plug-In . SVG Version: 6.00 Build 0)  -->
<svg version="1.1" id="Lager_1" xmlns="http://www.w3.org/2000/svg" xmlns:xlink="http://www.w3.org/1999/xlink" x="0px" y="0px"
	 viewBox="0 0 374.3 64.3" style="enable-background:new 0 0 374.3 64.3;" xml:space="preserve">
<style type="text/css">
	.st0{fill:#FFFFFF;}
</style>
<g>
	<path class="st0" d="M68.7,51.2v-6.3c-3.7,3.3-7.5,6.3-12.7,6.3c-2.3,0-5.1-0.9-6.5-2.9c-1.4-1.9-1.5-4.7-1.5-6.9v-15
		c0-1.6,0.1-3.2-0.4-4.8c-0.7-2.5-2.2-2.9-4.7-3.1v-0.7c5.7-0.2,11.3-1,16.9-1.9v24.2c0,1.3-0.1,3.3,0.7,4.4
		c0.7,1.1,2.1,1.7,3.3,1.7c1.9,0,3.5-1.2,4.8-2.5V26.4c0-1.6,0.1-3.2-0.4-4.8c-0.7-2.5-2.2-2.9-4.7-3.1v-0.7
		c5.7-0.2,11.3-1,16.9-1.9V38c0,4,0.1,7,4.8,7.6v0.7C79.4,47.5,74.5,49.5,68.7,51.2z"/>
	<path class="st0" d="M97,51.2c-2.4,0-4.7-0.6-6.6-2.1c-2.8-2.3-3-5.7-3-9V20h-8.2c8.1-3.5,15.1-9.5,20-16.7V17h8.4l-1.7,3.1h-6.7
		v19.2c0,4.1,0.9,7.1,5.5,7.1c1.4,0,2.5-0.3,3.8-0.7l0.4,0.5C105.4,48.8,101.5,51.2,97,51.2z"/>
	<path class="st0" d="M121.3,51.2c-4.7,0-10.4-1.9-14.8-3.5l-0.7-13.3h0.7c2.5,6,8.6,16,16.1,16c2.9,0,4.9-1.9,4.9-4.8
		c0-3.8-3.1-5.1-6.3-6.2C115.3,37.2,106,34.7,106,27c0-7.5,7.8-11,14.3-11c4.1,0,8,0.9,11.9,1.9l0.7,11h-0.7
		c-1.9-4.5-6.9-12-12.4-12c-2.5,0-4.7,1.9-4.7,4.5c0,8.8,21,5.1,21,17.7C136.1,47.2,128.5,51.2,121.3,51.2z"/>
	<path class="st0" d="M255.4,38.4v11.9h-0.7c-0.3-1.2-0.9-2.1-2.3-2.1c-0.9,0-2.3,0.5-3.1,0.7c-4.3,1.3-8.9,2.3-13.5,2.3
		c-12.4,0-22.8-10.5-22.8-22.9c0-13.5,11.1-23.4,24.3-23.4c2.9,0,5.8,0.4,8.6,1c1.4,0.3,2.7,0.7,4.1,0.7c0.8,0,1.3-0.3,1.5-1.1h0.7
		l0.7,17.4h-0.7c-1.7-6.3-6.3-17-14.2-17c-9.7-0.2-11,18.1-11,24.8s0.4,19.6,9.8,19.6c5.5,0,5.9-4.5,5.9-9v-4.7
		c0-4.4-0.9-6.1-5.4-6.7v-0.7h23v0.7C255.2,29.9,255.4,34.5,255.4,38.4z"/>
	<path class="st0" d="M257,50.3v-0.7c1.5-0.1,3-0.1,4-1.5c1-1.3,0.9-4.9,0.9-6.4V14.3c0-4.3-0.2-8.8-5.7-8.9L256,4.7
		c6-1.3,11.8-2.8,17.6-4.7v41.7c0,1.7-0.2,4.9,0.9,6.4c0.9,1.3,2.5,1.4,4,1.5v0.7C278.5,50.3,257,50.3,257,50.3z"/>
	<path class="st0" d="M42.4,38.4v11.9h-0.7c-0.3-1.2-0.9-2.1-2.3-2.1c-0.9,0-2.3,0.5-3.1,0.7c-4.3,1.3-9,2.3-13.5,2.3
		C10.4,51.2,0,40.7,0,28.3C0,14.8,11.1,4.9,24.3,4.9c2.9,0,5.8,0.4,8.6,1c1.4,0.3,2.7,0.7,4.1,0.7c0.8,0,1.3-0.3,1.5-1.1h0.7
		l0.7,17.4h-0.7c-1.7-6.3-6.3-17-14.2-17C15.3,5.7,14,24,14,30.7s0.4,19.6,9.8,19.6c5.5,0,5.9-4.5,5.9-9v-4.7c0-4.4-0.9-6.1-5.4-6.7
		v-0.7h23v0.7C42.1,29.9,42.4,34.5,42.4,38.4z"/>
	<path class="st0" d="M294.8,51.2c-10,0-18.5-7.3-18.5-17.6S284.8,16,294.8,16s18.4,7.3,18.4,17.6C313.2,43.9,304.8,51.2,294.8,51.2
		z M299.2,20.8c-0.6-2.1-1.9-3.9-4.4-3.9s-3.9,1.7-4.5,3.9c-1.1,3.7-1.1,8.9-1.1,12.8c0,3.8,0,9.1,1.1,12.8c0.6,2.2,2,3.9,4.5,3.9
		s3.8-1.8,4.4-3.9c1.1-3.7,1.1-8.9,1.1-12.8C300.3,29.8,300.2,24.5,299.2,20.8z"/>
	<path class="st0" d="M359.1,16.9v0.7c3.3,0.9,4.2,2.7,4.2,6.1c0,5.1-2.5,9.7-4.8,14.2l-6.2-12.6c-0.7-1.3-1.4-3.3-1.4-4.8
		c0-1.9,1-2.7,2.9-2.9v-0.7h-13.4c-0.9-0.6-2-0.9-3.2-0.9c-5.5,0-8.5,5.7-10,10.2V16c-5.6,2-11.3,3.9-17.1,5.1l0.1,0.7
		c5.7,0.3,5.7,4.3,5.7,9v11c0,1.6,0.1,5.1-0.9,6.4c-1.1,1.3-2.8,1.4-4.4,1.5v0.7H333v-0.7c-1.5-0.1-3.3-0.1-4.3-1.5
		c-1.1-1.5-1-4.7-1-6.4v-9.2c0-2.1-0.4-9.9,3.2-9.9c2.5,0,2.7,4.8,7.1,4.8c0.8,0,1.6-0.2,2.3-0.5l11.8,24c-1.1,2.2-2.9,6.5-5.9,6.5
		c-3.2,0-3.5-5.5-8.7-5.5c-3.3,0-5.9,2.4-5.9,5.7c0,4.4,3.7,6.7,7.8,6.7c5.9,0,9.5-5.2,11.9-10l11.8-23.7c1.7-3.5,3.9-7.1,6.5-10.2
		c1.5-1.7,2.4-2.3,4.7-2.9v-0.7H359.1z"/>
	<path class="st0" d="M210,7.4c-1.8-4-5.4-4.8-8.4-4.3c-0.5,0.1-1,0.2-1.5,0.4l0,0c-0.1,0-0.1,0-0.2,0.1c-1.6,0.7-3,2.1-3.7,3.9
		c-1.2,3.4,0.3,6.7,3.6,7.8s7.1-0.3,8.3-3.7c1-2.8,0-5.8-2.3-7.4c1,0.4,3.9,1.9,3.9,5.9c0,8.9-12.4,8.3-25.3,7.9
		c-12.9-0.4-14.8,2.7-20.8,12.4c-6,9.6-1.9,19,6.2,19.5c4.5,0.3,7.2-1.7,7.5-1.9c3.3-2.1,4.3-6.3,2.3-9.4c-2-3.1-6.3-3.9-9.5-1.8
		c-3.3,2.1-4.3,6.3-2.3,9.4c0.6,0.9,1.3,1.6,2.1,2.1c-1.6,0.2-3.2,0-4.6-0.9c-4.9-2.9-4.7-10.3-0.1-15.3c1.9-2.1,4.8-3.2,7.7-3.7
		c10.8-1.9,15.1,5.2,15,11.6c0,6.9-6.8,13.6-16.2,13.6c-6.3,0-15.3-2.5-15.1-14.6c0.1-11.2,8.9-15.6,11.2-16.6
		c0.1,0,0.1-0.1,0.1-0.1l0.7-0.3l-0.7-0.3c0,0-5.2-2.1-2.8-9.5c3.2-9.9,9.3-10.6,12.6-9.2c2.2,0.9,3.3,2.6,3.3,4.2
		c-0.3-0.5-0.6-1-1.1-1.5c-2.4-2.4-6.5-2.2-9.1,0.5c-2.6,2.6-2.7,6.7-0.3,9.1s6.5,2.2,9.1-0.5c0.8-0.9,1.4-1.9,1.7-2.9
		c0.1-0.1,0.1-0.3,0.2-0.6c0.5-2.2,0.7-4.5-0.6-6.6c-1-1.5-2.7-2.8-5.5-2.9c-9.8-0.4-19.2,4.3-20.4,10.6c-1.3,8,7,9.6,7,9.6
		s-18.8,1.9-19.2,16.9s23.5,15.6,28.8,15.6c6.3,0,20.8-3.4,21-14.4c0-8.3-6.9-11.1-11.5-12.2c0.8,0.1,4.4,0.4,10.1,0.7
		C207.4,28.9,213.2,14.3,210,7.4z"/>
</g>
</svg>
